# xmcd CD database file
#
# Track frame offsets:
#	150
#	9875
#	28823
#	48725
#	66885
#	82628
#	101903
#	118938
#	138470
#	156165
#	171528
#	193983
#	218095
#	235155
#	255398
#	280028
#	284390
#	292990
#	309375
#	327448
#
# Disc length: 4639 seconds
#
# Revision: 0
# Processed by: cddbd v1.5.1PL2 Copyright (c) Steve Scherf et al.
# Submitted via: CDex 1.51
#
DISCID=28121d14
DTITLE=THE ROOSTERS - Rare Studio Tracks III
DYEAR=1900
DGENRE=ロック
TTITLE0=ラジオ上海〜Wipe Out
TTITLE1=Girl Friend (Take1)
TTITLE2=Girl Friend (Take2)
TTITLE3=Girl Friend (Take3)
TTITLE4=Let's Rock (1st Release Ver.)
TTITLE5=Dan Dan (Let's Rock)
TTITLE6=Astral Plane
TTITLE7=Go Fuck
TTITLE8=Sad Romance
TTITLE9=She Broke My Heart's Edge
TTITLE10=I'm Swayin' In The Air
TTITLE11=Good Dreams
TTITLE12=Plum Sour-2
TTITLE13=Femme Fatale
TTITLE14=Φ
TTITLE15=サイレントマーダー
TTITLE16=Happy Time
TTITLE17=Transmission
TTITLE18=K
TTITLE19=Secret
EXTD=
EXTT0=
EXTT1=
EXTT2=
EXTT3=
EXTT4=
EXTT5=
EXTT6=
EXTT7=
EXTT8=
EXTT9=
EXTT10=
EXTT11=
EXTT12=
EXTT13=
EXTT14=
EXTT15=
EXTT16=
EXTT17=
EXTT18=
EXTT19=
PLAYORDER=
